<?xml version="1.0" standalone="no"?>
<!DOCTYPE svg PUBLIC "-//W3C//DTD SVG 20010904//EN"
 "http://www.w3.org/TR/2001/REC-SVG-20010904/DTD/svg10.dtd">
<svg version="1.0" xmlns="http://www.w3.org/2000/svg"
 width="832.000000pt" height="644.000000pt" viewBox="0 0 832.000000 644.000000"
 preserveAspectRatio="xMidYMid meet">

<g transform="translate(0.000000,644.000000) scale(0.100000,-0.100000)"
fill="#000000" stroke="none">
<path d="M2945 6253 c-577 -75 -1202 -321 -1701 -668 -108 -76 -129 -103 -252
-330 -215 -397 -432 -951 -586 -1495 -192 -680 -342 -1565 -382 -2263 l-7
-119 129 -130 c249 -250 516 -443 834 -603 410 -206 934 -349 1390 -380 l85
-6 150 202 c140 189 148 202 130 215 -10 8 -23 14 -27 14 -23 0 -274 108 -415
178 -405 202 -793 491 -1064 793 -82 92 -82 92 51 -1 577 -404 1238 -664 1955
-770 313 -46 792 -77 1015 -66 58 3 168 8 245 11 442 19 918 104 1340 242 400
130 811 335 1147 570 62 44 120 83 128 88 30 17 -133 -155 -238 -253 -350
-324 -754 -580 -1183 -748 -79 -31 -148 -60 -153 -65 -7 -6 167 -251 290 -408
2 -2 63 2 136 8 477 42 981 188 1396 406 308 163 543 337 786 584 l119 121 -7
117 c-40 697 -190 1585 -382 2263 -155 546 -365 1083 -581 1485 -135 251 -142
259 -294 362 -529 356 -1119 584 -1679 648 l-55 7 -44 -91 c-25 -50 -43 -92
-40 -94 2 -2 54 -16 114 -32 443 -112 878 -307 1207 -542 143 -102 433 -341
424 -350 -2 -2 -111 50 -242 115 -734 363 -1243 515 -1994 594 -170 18 -929
18 -1100 0 -752 -79 -1255 -229 -2004 -599 -126 -63 -230 -112 -232 -110 -5 4
136 125 250 216 408 323 888 559 1376 677 63 15 117 29 119 31 3 2 -15 44 -39
93 -47 95 -43 92 -115 83z m156 -2649 c248 -77 435 -327 471 -627 41 -351
-158 -703 -457 -808 -167 -58 -370 -33 -517 64 -209 139 -328 375 -328 652 0
150 21 242 86 373 76 154 211 282 358 337 128 48 251 51 387 9z m2403 10 c109
-26 183 -71 282 -169 78 -77 98 -104 138 -185 65 -133 87 -227 87 -375 0 -147
-22 -242 -85 -370 -116 -236 -329 -377 -567 -378 -96 0 -165 16 -254 59 -182
86 -317 259 -376 479 -31 117 -32 310 -1 419 112 392 429 604 776 520z"/>
</g>
</svg>
